<svg width="184" height="32" viewBox="0 0 184 32" fill="none" xmlns="http://www.w3.org/2000/svg">
<g clip-path="url(#clip0_1719_9048)">
<path d="M29.3137 31.4511C29.2355 31.6707 29.086 31.8272 28.8676 31.9218C28.8045 31.9533 28.6947 31.9685 28.5382 31.9685C28.1926 31.9685 27.9426 31.812 27.7861 31.4978L14.999 2.72701L7.9473 18.5705H15.7978C16.0477 18.5705 16.2521 18.6488 16.4086 18.8053C16.5651 18.9629 16.6434 19.1661 16.6434 19.4161C16.6434 19.6356 16.5651 19.8237 16.4086 19.9801C16.2509 20.1378 16.0477 20.2149 15.7978 20.2149H7.19401L2.16394 31.4978C2.00627 31.812 1.75635 31.9685 1.41182 31.9685C1.28569 31.9685 1.17708 31.9533 1.08248 31.9218C0.862916 31.8272 0.721602 31.6707 0.659705 31.4511C0.597807 31.2327 0.597807 31.0283 0.659705 30.8403L5.92452 19.0867L14.199 0.470657C14.3555 0.157664 14.6218 0 14.9978 0C15.3423 0 15.5934 0.157664 15.7499 0.470657L29.2892 30.8403C29.3826 31.0283 29.3908 31.2327 29.3126 31.4511H29.3137Z" fill="#1D1D1B"/>
<path d="M39.209 0C41.4023 0 43.4788 0.422774 45.4385 1.26949C47.397 2.1162 49.0974 3.25956 50.5398 4.7019C51.9809 6.14423 53.1255 7.84467 53.9722 9.80321C54.8189 11.7618 55.2417 13.8394 55.2417 16.0327C55.2417 17.913 54.9205 19.7232 54.2782 21.4622C53.6358 23.2012 52.7506 24.7615 51.6224 26.1396C50.4942 27.5188 49.1547 28.7019 47.6025 29.6888C46.0504 30.6756 44.3663 31.3577 42.5491 31.7337H42.5024C41.7188 31.8914 40.9818 31.9685 40.2928 31.9685H33.1465C32.9269 31.9685 32.7389 31.8902 32.5824 31.7337C32.4247 31.5772 32.3477 31.3892 32.3477 31.1696C32.3477 30.9185 32.4259 30.7153 32.5824 30.5588C32.7389 30.4023 32.9269 30.3241 33.1465 30.3241H40.2928C40.6058 30.3241 40.9199 30.3089 41.2329 30.2774C41.5459 30.247 41.8589 30.1991 42.1731 30.1361C43.8338 29.7915 45.3614 29.1807 46.757 28.3025C48.1515 27.4254 49.3579 26.3591 50.3774 25.106C51.3958 23.8528 52.1877 22.4502 52.7517 20.8981C53.3158 19.346 53.5985 17.725 53.5985 16.0327C53.5985 14.0578 53.2224 12.1939 52.4703 10.4385C51.7182 8.68321 50.6916 7.15562 49.3906 5.8546C48.0896 4.55474 46.562 3.52701 44.8066 2.77489C43.0513 2.02277 41.1862 1.64672 39.2125 1.64672C38.4907 1.64672 37.818 1.78803 37.1909 2.06949C36.5637 2.35212 36.016 2.72818 35.5453 3.19766C35.0747 3.66832 34.6986 4.21606 34.4171 4.84321C34.1345 5.47037 33.9944 6.14423 33.9944 6.86482V24.7766C33.9944 25.0277 33.9161 25.231 33.7596 25.3874C33.6031 25.5439 33.3987 25.6222 33.1488 25.6222C32.9293 25.6222 32.7412 25.5439 32.5847 25.3874C32.4271 25.231 32.35 25.0277 32.35 24.7766V6.86365C32.35 5.9235 32.5298 5.03825 32.8907 4.20788C33.2504 3.37752 33.7444 2.64876 34.3716 2.02161C34.9987 1.39445 35.7263 0.901606 36.5579 0.54073C37.3882 0.181022 38.2735 0 39.2136 0L39.209 0Z" fill="#1D1D1B"/>
<path d="M76.2553 0C78.4486 0 80.5169 0.422774 82.4615 1.26949C84.4048 2.1162 86.0971 3.25956 87.5382 4.7019C88.9794 6.14423 90.1239 7.8365 90.9707 9.77985C91.8174 11.7232 92.2402 13.7915 92.2402 15.986C92.2402 18.1804 91.8174 20.2873 90.9707 22.2155C90.1239 24.1425 88.9806 25.8359 87.5382 27.2934C86.0959 28.7509 84.4037 29.8955 82.4615 30.7258C80.5181 31.5562 78.4486 31.972 76.2553 31.972C74.062 31.972 71.954 31.5574 70.0258 30.7258C68.0988 29.8955 66.4054 28.7509 64.949 27.2934C63.4927 25.8359 62.347 24.1437 61.5166 22.2155C60.6863 20.2885 60.2705 18.212 60.2705 15.986C60.2705 14.6067 60.4422 13.2672 60.7879 11.9661C61.1324 10.6663 61.6182 9.42015 62.2454 8.2289C62.528 7.79095 62.9041 7.69635 63.3736 7.94628C63.5616 8.03971 63.6866 8.19737 63.7496 8.41693C63.8115 8.6365 63.7963 8.83971 63.7029 9.02774C63.1073 10.094 62.653 11.214 62.34 12.3889C62.0258 13.5638 61.8693 14.7632 61.8693 15.9848C61.8693 17.9597 62.2454 19.8248 62.9975 21.579C63.7496 23.3343 64.7762 24.8631 66.0772 26.1629C67.3771 27.4639 68.9058 28.4905 70.6612 29.2426C72.4165 29.9947 74.2816 30.3708 76.2553 30.3708C78.2291 30.3708 80.0872 29.9947 81.8261 29.2426C83.5651 28.4905 85.0857 27.4639 86.3867 26.1629C87.6866 24.8631 88.7143 23.3343 89.4664 21.579C90.2185 19.8237 90.5946 17.9585 90.5946 15.9848C90.5946 14.0111 90.2185 12.153 89.4664 10.414C88.7143 8.67504 87.6877 7.15445 86.3867 5.85343C85.0857 4.55358 83.5663 3.52584 81.8261 2.77372C80.0872 2.02161 78.2302 1.64555 76.2553 1.64555C73.7479 1.64555 71.4285 2.24117 69.2971 3.43241C69.109 3.52701 68.9047 3.54219 68.6863 3.47912C68.4667 3.41723 68.2939 3.29109 68.1689 3.10307C68.0755 2.91504 68.0591 2.71182 68.1222 2.49226C68.1853 2.27387 68.3102 2.1162 68.4982 2.02161C70.9111 0.673869 73.4968 0 76.2553 0Z" fill="#1D1D1B"/>
<path d="M121.011 12.2702C121.011 13.9624 120.69 15.5543 120.048 17.0422C119.406 18.5312 118.527 19.8322 117.416 20.9441C116.303 22.057 115.002 22.9341 113.514 23.5765C112.025 24.2188 110.434 24.54 108.742 24.54H108.695L116.217 30.37C116.405 30.5277 116.515 30.7157 116.547 30.9341C116.577 31.1537 116.515 31.3417 116.359 31.4982C116.232 31.7178 116.013 31.8276 115.7 31.8276C115.512 31.8276 115.354 31.7657 115.229 31.6395L98.1162 18.4284V31.1689C98.1162 31.3884 98.038 31.5765 97.8815 31.733C97.7238 31.8906 97.5206 31.9677 97.2707 31.9677C97.0511 31.9677 96.8631 31.8895 96.7066 31.733C96.5489 31.5765 96.4719 31.3884 96.4719 31.1689V7.33471C96.4719 7.08478 96.5501 6.88858 96.7066 6.74726C96.8631 6.60595 97.0511 6.53588 97.2707 6.53588C97.5206 6.53588 97.725 6.60595 97.8815 6.74726C98.038 6.88858 98.1162 7.08478 98.1162 7.33471V16.3613L104.98 21.674C105.481 22.0816 106.061 22.3957 106.719 22.6141C107.378 22.8337 108.05 22.9435 108.74 22.9435C110.213 22.9435 111.592 22.6608 112.877 22.0968C114.162 21.5327 115.29 20.7735 116.262 19.817C117.232 18.8617 117.992 17.7335 118.541 16.4325C119.089 15.1327 119.364 13.7452 119.364 12.2714C119.364 10.7975 119.089 9.41938 118.541 8.13471C117.992 6.85004 117.232 5.72186 116.262 4.75018C115.29 3.77967 114.162 3.01938 112.877 2.47048C111.591 1.92274 110.213 1.64829 108.74 1.64829H97.2695C97.05 1.64829 96.8619 1.57004 96.7054 1.41354C96.5478 1.25705 96.4707 1.05383 96.4707 0.802738C96.4707 0.584344 96.5489 0.396315 96.7054 0.238651C96.8619 0.0821544 97.05 0.00390625 97.2695 0.00390625H108.74C110.433 0.00390625 112.023 0.325074 113.512 0.96741C115 1.60975 116.301 2.48799 117.414 3.59982C118.526 4.71281 119.404 6.01383 120.047 7.50172C120.689 8.99077 121.01 10.5814 121.01 12.2737L121.011 12.2702Z" fill="#1D1D1B"/>
<path d="M126.793 0C127.043 0 127.247 0.0782482 127.404 0.234745C127.56 0.392409 127.639 0.580438 127.639 0.798832V31.1696C127.639 31.3892 127.56 31.5772 127.404 31.7337C127.246 31.8914 127.043 31.9685 126.793 31.9685C126.573 31.9685 126.385 31.8902 126.229 31.7337C126.071 31.5772 125.994 31.3892 125.994 31.1696V0.798832C125.994 0.580438 126.072 0.392409 126.229 0.234745C126.385 0.0782482 126.573 0 126.793 0ZM148.795 0C149.045 0 149.241 0.0782482 149.382 0.234745C149.523 0.392409 149.594 0.580438 149.594 0.798832V31.075C149.594 31.6088 149.327 31.8739 148.795 31.8739C148.607 31.8739 148.449 31.8353 148.324 31.7559C148.198 31.6777 148.105 31.6076 148.041 31.5445L131.775 8.74394C131.618 8.55591 131.564 8.3527 131.611 8.13314C131.657 7.91474 131.775 7.72672 131.963 7.56905C132.12 7.44409 132.308 7.40438 132.527 7.4511C132.746 7.49781 132.934 7.60058 133.091 7.75708L147.995 28.6307V0.798832C147.995 0.580438 148.073 0.392409 148.229 0.234745C148.386 0.0782482 148.574 0 148.794 0H148.795Z" fill="#1D1D1B"/>
<path d="M183.326 31.4511C183.248 31.6707 183.098 31.8272 182.88 31.9218C182.817 31.9533 182.707 31.9685 182.551 31.9685C182.205 31.9685 181.955 31.812 181.799 31.4978L169.011 2.72584L161.96 18.5693H169.811C170.061 18.5693 170.266 18.6476 170.422 18.8041C170.579 18.9618 170.657 19.165 170.657 19.4149C170.657 19.6345 170.579 19.8225 170.422 19.979C170.265 20.1366 170.061 20.2137 169.811 20.2137H161.208L156.178 31.4966C156.02 31.8108 155.77 31.9673 155.425 31.9673C155.299 31.9673 155.191 31.9521 155.096 31.9206C154.877 31.826 154.735 31.6695 154.673 31.4499C154.611 31.2315 154.611 31.0272 154.673 30.8391L159.938 19.0855L168.211 0.470657C168.368 0.157664 168.634 0 169.01 0C169.355 0 169.605 0.157664 169.762 0.470657L183.302 30.8403C183.395 31.0283 183.403 31.2327 183.325 31.4511H183.326Z" fill="#1D1D1B"/>
</g>
<defs>
<clipPath id="clip0_1719_9048">
<rect width="182.774" height="32" fill="white" transform="translate(0.613281)"/>
</clipPath>
</defs>
</svg>
